<svg xmlns="http://www.w3.org/2000/svg" xmlns:xlink="http://www.w3.org/1999/xlink" width="500" zoomAndPan="magnify" viewBox="0 0 375 374.999991" height="500" preserveAspectRatio="xMidYMid meet" version="1.0"><defs><g/><clipPath id="ac6ecede35"><path d="M 20.214844 36.761719 L 360.714844 36.761719 L 360.714844 162.011719 L 20.214844 162.011719 Z M 20.214844 36.761719 " clip-rule="nonzero"/></clipPath><clipPath id="d058b7e5ee"><path d="M 14.089844 228.476562 L 360.589844 228.476562 L 360.589844 353.726562 L 14.089844 353.726562 Z M 14.089844 228.476562 " clip-rule="nonzero"/></clipPath><clipPath id="0b931bd147"><path d="M 157.566406 260.570312 L 223.566406 260.570312 L 223.566406 337.820312 L 157.566406 337.820312 Z M 157.566406 260.570312 " clip-rule="nonzero"/></clipPath></defs><g clip-path="url(#ac6ecede35)"><path fill="#000000" d="M 348.316406 233.640625 C 354.996094 233.640625 360.460938 228.175781 360.460938 221.496094 L 360.460938 192.125 C 360.460938 185.445312 354.996094 179.980469 348.316406 179.980469 L 335.703125 179.980469 C 329.023438 179.980469 321.953125 174.75 319.984375 168.367188 L 309.222656 142.238281 C 306.066406 136.351562 307.347656 127.671875 312.066406 122.953125 L 320.996094 114.023438 C 325.714844 109.300781 325.71875 101.570312 320.996094 96.84375 L 300.226562 76.078125 C 295.503906 71.355469 287.773438 71.355469 283.050781 76.078125 L 274.121094 85.007812 C 269.398438 89.730469 260.710938 91.007812 254.828125 87.84375 L 228.703125 77.085938 C 222.316406 75.125 217.09375 68.050781 217.09375 61.371094 L 217.09375 48.757812 C 217.09375 42.078125 211.628906 36.613281 204.949219 36.613281 L 175.578125 36.613281 C 168.898438 36.613281 163.433594 42.078125 163.433594 48.757812 L 163.433594 61.371094 C 163.433594 68.050781 158.207031 75.125 151.824219 77.085938 L 125.699219 87.84375 C 119.8125 91.007812 111.132812 89.726562 106.410156 85.003906 L 97.484375 76.074219 C 92.757812 71.351562 85.027344 71.351562 80.304688 76.074219 L 59.539062 96.839844 C 54.8125 101.566406 54.8125 109.296875 59.539062 114.019531 L 68.46875 122.949219 C 73.195312 127.671875 74.46875 136.351562 71.3125 142.238281 L 60.550781 168.367188 C 58.585938 174.75 51.511719 179.972656 44.832031 179.972656 L 32.226562 179.972656 C 25.542969 179.972656 20.078125 185.441406 20.078125 192.121094 L 20.078125 221.496094 C 20.078125 228.175781 25.542969 233.640625 32.226562 233.640625 L 44.832031 233.640625 C 51.511719 233.640625 58.585938 238.863281 60.550781 245.25 L 71.316406 271.378906 C 74.476562 277.261719 73.199219 285.945312 68.472656 290.667969 L 59.542969 299.597656 C 54.816406 304.320312 54.816406 312.050781 59.542969 316.773438 L 80.304688 337.539062 C 85.027344 342.265625 92.757812 342.261719 97.484375 337.539062 L 106.414062 328.609375 C 111.140625 323.886719 119.820312 322.609375 125.703125 325.769531 L 151.828125 336.53125 C 158.214844 338.496094 163.4375 345.5625 163.4375 352.25 L 163.4375 364.859375 C 163.4375 371.542969 168.902344 377.007812 175.582031 377.007812 L 204.953125 377.007812 C 211.632812 377.007812 217.097656 371.542969 217.097656 364.859375 L 217.097656 352.246094 C 217.097656 345.5625 222.320312 338.496094 228.707031 336.527344 L 254.832031 325.769531 C 260.714844 322.609375 269.402344 323.882812 274.121094 328.609375 L 283.058594 337.539062 C 287.777344 342.265625 295.511719 342.261719 300.230469 337.539062 L 321 316.773438 C 325.71875 312.054688 325.722656 304.320312 321 299.59375 L 312.070312 290.667969 C 307.347656 285.941406 306.070312 277.257812 309.230469 271.375 L 319.984375 245.25 C 321.949219 238.863281 329.023438 233.640625 335.707031 233.640625 Z M 190.265625 276.828125 C 151.59375 276.828125 120.246094 245.480469 120.246094 206.808594 C 120.246094 168.136719 151.59375 136.785156 190.265625 136.785156 C 228.933594 136.785156 260.289062 168.136719 260.289062 206.808594 C 260.289062 245.480469 228.933594 276.828125 190.265625 276.828125 Z M 190.265625 276.828125 " fill-opacity="1" fill-rule="nonzero"/></g><g clip-path="url(#d058b7e5ee)"><path fill="#000000" d="M 26.707031 153.378906 C 19.910156 153.378906 14.347656 158.941406 14.347656 165.738281 L 14.347656 195.625 C 14.347656 202.421875 19.910156 207.984375 26.707031 207.984375 L 39.542969 207.984375 C 46.339844 207.984375 53.535156 213.304688 55.535156 219.800781 L 66.488281 246.390625 C 69.703125 252.378906 68.398438 261.214844 63.597656 266.015625 L 54.511719 275.101562 C 49.707031 279.910156 49.703125 287.777344 54.511719 292.582031 L 75.644531 313.714844 C 80.449219 318.523438 88.316406 318.523438 93.125 313.714844 L 102.210938 304.628906 C 107.015625 299.824219 115.855469 298.523438 121.839844 301.742188 L 148.429688 312.691406 C 154.925781 314.6875 160.242188 321.886719 160.242188 328.683594 L 160.242188 341.519531 C 160.242188 348.316406 165.804688 353.878906 172.601562 353.878906 L 202.488281 353.878906 C 209.285156 353.878906 214.847656 348.316406 214.847656 341.519531 L 214.847656 328.683594 C 214.847656 321.886719 220.167969 314.6875 226.660156 312.691406 L 253.246094 301.742188 C 259.238281 298.523438 268.070312 299.828125 272.875 304.636719 L 281.960938 313.71875 C 286.769531 318.527344 294.632812 318.527344 299.441406 313.71875 L 320.574219 292.585938 C 325.382812 287.78125 325.382812 279.914062 320.574219 275.105469 L 311.484375 266.019531 C 306.675781 261.214844 305.378906 252.378906 308.59375 246.390625 L 319.542969 219.800781 C 321.542969 213.304688 328.742188 207.988281 335.539062 207.988281 L 348.367188 207.988281 C 355.167969 207.988281 360.730469 202.429688 360.730469 195.628906 L 360.730469 165.738281 C 360.730469 158.941406 355.167969 153.378906 348.367188 153.378906 L 335.539062 153.378906 C 328.742188 153.378906 321.542969 148.0625 319.542969 141.566406 L 308.589844 114.976562 C 305.371094 108.988281 306.671875 100.152344 311.480469 95.347656 L 320.570312 86.257812 C 325.378906 81.453125 325.378906 73.589844 320.570312 68.78125 L 299.441406 47.648438 C 294.632812 42.839844 286.769531 42.84375 281.960938 47.648438 L 272.871094 56.738281 C 268.0625 61.542969 259.230469 62.84375 253.242188 59.625 L 226.65625 48.675781 C 220.160156 46.675781 214.84375 39.480469 214.84375 32.679688 L 214.84375 19.847656 C 214.84375 13.046875 209.28125 7.484375 202.484375 7.484375 L 172.597656 7.484375 C 165.796875 7.484375 160.238281 13.046875 160.238281 19.847656 L 160.238281 32.683594 C 160.238281 39.480469 154.921875 46.675781 148.425781 48.679688 L 121.835938 59.625 C 115.851562 62.84375 107.011719 61.546875 102.210938 56.738281 L 93.117188 47.648438 C 88.3125 42.839844 80.441406 42.84375 75.640625 47.648438 L 54.507812 68.78125 C 49.703125 73.585938 49.699219 81.453125 54.507812 86.261719 L 63.589844 95.347656 C 68.398438 100.15625 69.699219 108.992188 66.484375 114.980469 L 55.535156 141.566406 C 53.539062 148.0625 46.339844 153.378906 39.539062 153.378906 Z M 187.542969 109.429688 C 226.894531 109.429688 258.796875 141.332031 258.796875 180.683594 C 258.796875 220.035156 226.894531 251.9375 187.542969 251.9375 C 148.195312 251.9375 116.289062 220.035156 116.289062 180.683594 C 116.289062 141.332031 148.195312 109.429688 187.542969 109.429688 Z M 187.542969 109.429688 " fill-opacity="1" fill-rule="nonzero"/></g><g clip-path="url(#0b931bd147)"><path fill="#ffffff" d="M 217.960938 286.105469 C 217.742188 285.648438 217.234375 285.398438 216.738281 285.507812 L 211.671875 286.632812 C 211.78125 285.808594 211.710938 284.960938 211.460938 284.160156 L 218.890625 283.382812 L 220.628906 291.738281 Z M 187.863281 260.566406 L 186.785156 260.566406 C 184.886719 260.691406 183.027344 261.476562 181.582031 262.921875 C 179.757812 264.75 178.988281 267.238281 179.265625 269.625 L 166.25 280.367188 C 163.976562 280.46875 161.859375 281.402344 160.242188 283.019531 C 158.527344 284.734375 157.582031 287.011719 157.582031 289.4375 C 157.582031 291.863281 158.527344 294.144531 160.242188 295.859375 C 161.53125 297.152344 163.144531 298.003906 164.902344 298.347656 L 175.953125 322.558594 C 175.953125 322.636719 175.945312 322.710938 175.945312 322.789062 L 175.945312 330.179688 L 172.898438 330.179688 C 171.476562 330.179688 170.316406 331.335938 170.316406 332.757812 L 170.316406 334.90625 C 170.316406 336.328125 171.476562 337.484375 172.898438 337.484375 L 197.148438 337.484375 C 198.570312 337.484375 199.726562 336.328125 199.726562 334.90625 L 199.726562 332.757812 C 199.726562 331.335938 198.570312 330.179688 197.148438 330.179688 L 194.097656 330.179688 L 194.097656 322.789062 C 194.097656 320.472656 193.21875 318.351562 191.789062 316.746094 L 174.964844 293.125 C 175.46875 291.980469 175.742188 290.730469 175.742188 289.4375 C 175.742188 289.371094 175.742188 289.304688 175.742188 289.238281 L 186.097656 276.691406 C 186.5 276.753906 186.917969 276.785156 187.328125 276.785156 C 188.039062 276.785156 188.75 276.691406 189.4375 276.503906 L 200.414062 285.566406 C 200.410156 285.667969 200.402344 285.773438 200.402344 285.878906 C 200.402344 287.390625 200.996094 288.8125 202.066406 289.882812 C 202.128906 289.953125 202.203125 290.019531 202.277344 290.085938 L 201.304688 299.460938 C 201.246094 300.015625 201.617188 300.527344 202.160156 300.640625 L 213.371094 302.96875 C 213.445312 302.984375 213.519531 302.992188 213.601562 302.992188 C 213.886719 302.992188 214.164062 302.878906 214.371094 302.671875 L 215.636719 301.398438 C 215.894531 301.148438 216.003906 300.789062 215.945312 300.441406 C 215.886719 300.09375 215.660156 299.792969 215.335938 299.640625 L 208.015625 296.175781 L 209.261719 290.550781 C 209.546875 290.351562 209.820312 290.128906 210.066406 289.882812 C 210.316406 289.628906 210.542969 289.359375 210.734375 289.078125 L 216.363281 287.824219 L 219.828125 295.148438 C 219.984375 295.46875 220.285156 295.695312 220.628906 295.753906 C 220.695312 295.765625 220.753906 295.773438 220.820312 295.773438 C 221.105469 295.773438 221.382812 295.660156 221.589844 295.453125 L 222.855469 294.179688 C 223.121094 293.921875 223.230469 293.546875 223.15625 293.1875 L 220.824219 281.972656 C 220.714844 281.425781 220.203125 281.050781 219.644531 281.113281 L 210.273438 282.09375 C 210.207031 282.019531 210.140625 281.945312 210.066406 281.875 C 208.886719 280.691406 207.304688 280.144531 205.757812 280.226562 L 195.382812 267.65625 C 195.160156 265.925781 194.390625 264.25 193.066406 262.925781 C 191.617188 261.476562 189.757812 260.691406 187.863281 260.566406 Z M 208.527344 288.339844 C 207.867188 288.996094 206.996094 289.359375 206.066406 289.359375 C 205.136719 289.359375 204.261719 288.996094 203.605469 288.339844 C 202.945312 287.683594 202.585938 286.808594 202.585938 285.878906 C 202.585938 284.949219 202.945312 284.074219 203.605469 283.417969 C 204.285156 282.738281 205.171875 282.398438 206.066406 282.398438 C 206.960938 282.398438 207.847656 282.738281 208.527344 283.417969 C 209.882812 284.773438 209.882812 286.980469 208.527344 288.339844 Z M 206.292969 297.773438 C 205.832031 297.554688 205.589844 297.046875 205.699219 296.550781 L 206.820312 291.488281 C 206.570312 291.519531 206.324219 291.539062 206.066406 291.539062 C 205.472656 291.539062 204.894531 291.449219 204.351562 291.273438 L 203.566406 298.707031 L 211.929688 300.441406 Z M 191.671875 275.523438 C 192.171875 275.210938 192.640625 274.839844 193.066406 274.410156 C 194.105469 273.375 194.792969 272.128906 195.152344 270.8125 L 203.449219 280.859375 C 202.953125 281.117188 202.480469 281.457031 202.066406 281.875 C 201.648438 282.289062 201.308594 282.753906 201.046875 283.257812 Z M 183.121094 272.867188 C 180.804688 270.550781 180.804688 266.78125 183.121094 264.464844 C 184.277344 263.308594 185.800781 262.726562 187.328125 262.726562 C 188.84375 262.726562 190.367188 263.308594 191.527344 264.464844 C 193.84375 266.78125 193.84375 270.550781 191.527344 272.867188 C 189.210938 275.1875 185.445312 275.183594 183.121094 272.867188 Z M 175.226562 286.425781 C 174.789062 285.15625 174.0625 283.996094 173.082031 283.019531 C 171.996094 281.929688 170.675781 281.152344 169.234375 280.726562 L 179.886719 271.933594 C 180.285156 272.832031 180.847656 273.675781 181.582031 274.410156 C 182.253906 275.085938 183.019531 275.613281 183.839844 276 Z M 187.128906 313.960938 C 186.449219 313.800781 185.742188 313.714844 185.027344 313.714844 C 181.347656 313.714844 178.179688 315.910156 176.75 319.058594 L 167.363281 298.488281 C 169.527344 298.324219 171.535156 297.40625 173.082031 295.859375 C 173.308594 295.632812 173.527344 295.394531 173.726562 295.144531 Z M 191.914062 330.179688 L 178.128906 330.179688 L 178.128906 322.789062 C 178.128906 318.988281 181.222656 315.894531 185.027344 315.894531 C 188.820312 315.894531 191.914062 318.988281 191.914062 322.789062 Z M 197.542969 332.757812 L 197.542969 334.90625 C 197.542969 335.125 197.367188 335.300781 197.148438 335.300781 L 172.898438 335.300781 C 172.675781 335.300781 172.492188 335.121094 172.492188 334.90625 L 172.492188 332.757812 C 172.492188 332.542969 172.675781 332.359375 172.898438 332.359375 L 197.148438 332.359375 C 197.367188 332.359375 197.542969 332.539062 197.542969 332.757812 Z M 161.78125 284.558594 C 163.085938 283.257812 164.820312 282.539062 166.660156 282.539062 C 168.507812 282.539062 170.238281 283.257812 171.542969 284.558594 C 174.230469 287.25 174.230469 291.628906 171.542969 294.316406 C 170.238281 295.621094 168.507812 296.339844 166.660156 296.339844 C 164.820312 296.339844 163.085938 295.621094 161.78125 294.316406 C 159.089844 291.628906 159.089844 287.25 161.78125 284.558594 Z M 164.03125 289.4375 C 164.03125 288.734375 164.308594 288.074219 164.800781 287.578125 C 165.296875 287.082031 165.957031 286.808594 166.660156 286.808594 C 167.363281 286.808594 168.023438 287.082031 168.523438 287.578125 C 169.019531 288.074219 169.292969 288.734375 169.292969 289.4375 C 169.292969 290.140625 169.019531 290.800781 168.523438 291.300781 C 168.023438 291.796875 167.363281 292.070312 166.660156 292.070312 C 165.957031 292.070312 165.296875 291.796875 164.800781 291.300781 C 164.308594 290.800781 164.03125 290.140625 164.03125 289.4375 Z M 170.0625 292.839844 C 169.121094 293.777344 167.890625 294.246094 166.660156 294.246094 C 165.429688 294.246094 164.199219 293.777344 163.261719 292.839844 C 161.382812 290.964844 161.382812 287.914062 163.261719 286.035156 C 165.136719 284.160156 168.183594 284.160156 170.0625 286.035156 C 171.9375 287.914062 171.9375 290.964844 170.0625 292.839844 Z M 188.867188 270.210938 C 188.457031 270.625 187.90625 270.851562 187.328125 270.851562 C 186.742188 270.851562 186.191406 270.625 185.78125 270.210938 C 185.371094 269.800781 185.144531 269.25 185.144531 268.667969 C 185.144531 268.082031 185.371094 267.535156 185.78125 267.121094 C 186.191406 266.710938 186.742188 266.484375 187.328125 266.484375 C 187.90625 266.484375 188.457031 266.710938 188.867188 267.121094 C 189.285156 267.535156 189.511719 268.082031 189.511719 268.667969 C 189.511719 269.25 189.285156 269.800781 188.867188 270.210938 Z M 190.414062 265.582031 C 191.234375 266.40625 191.6875 267.5 191.6875 268.667969 C 191.6875 269.832031 191.234375 270.929688 190.414062 271.753906 C 189.585938 272.578125 188.492188 273.03125 187.328125 273.03125 C 186.160156 273.03125 185.0625 272.578125 184.242188 271.753906 C 183.414062 270.929688 182.960938 269.832031 182.960938 268.667969 C 182.960938 267.5 183.414062 266.40625 184.242188 265.582031 C 185.0625 264.757812 186.160156 264.300781 187.328125 264.300781 C 188.492188 264.300781 189.585938 264.757812 190.414062 265.582031 Z M 185.027344 325.574219 C 183.488281 325.574219 182.242188 324.324219 182.242188 322.789062 C 182.242188 321.253906 183.488281 320.003906 185.027344 320.003906 C 186.558594 320.003906 187.8125 321.253906 187.8125 322.789062 C 187.8125 324.324219 186.558594 325.574219 185.027344 325.574219 Z M 185.027344 317.824219 C 187.757812 317.824219 189.988281 320.054688 189.988281 322.789062 C 189.988281 325.527344 187.757812 327.753906 185.027344 327.753906 C 182.285156 327.753906 180.058594 325.527344 180.058594 322.789062 C 180.058594 320.050781 182.285156 317.824219 185.027344 317.824219 Z M 185.027344 317.824219 " fill-opacity="1" fill-rule="evenodd"/></g><g fill="#000000" fill-opacity="1"><g transform="translate(68.067892, 215.060091)"><g><path d="M 24.03125 -30.359375 C 24.03125 -25.503906 22.160156 -22.160156 18.421875 -20.328125 C 19.691406 -19.785156 20.679688 -18.957031 21.390625 -17.84375 C 22.109375 -16.726562 22.46875 -15.300781 22.46875 -13.5625 C 22.46875 -11.820312 22.210938 -10.171875 21.703125 -8.609375 C 21.191406 -7.046875 20.398438 -5.632812 19.328125 -4.375 C 17.046875 -1.664062 13.425781 -0.234375 8.46875 -0.078125 L 3.21875 0.09375 C 2.863281 0.0625 2.6875 -0.0859375 2.6875 -0.359375 L 6.875 -37.09375 C 6.90625 -37.382812 6.976562 -37.582031 7.09375 -37.6875 C 7.207031 -37.789062 8.222656 -37.910156 10.140625 -38.046875 C 12.066406 -38.179688 13.898438 -38.25 15.640625 -38.25 C 18.566406 -38.25 20.695312 -37.546875 22.03125 -36.140625 C 23.363281 -34.734375 24.03125 -32.804688 24.03125 -30.359375 Z M 12.15625 -17.90625 C 11.488281 -17.90625 11.046875 -17.898438 10.828125 -17.890625 L 9.515625 -6 C 11.835938 -6 13.597656 -6.738281 14.796875 -8.21875 C 15.992188 -9.695312 16.59375 -11.640625 16.59375 -14.046875 C 16.59375 -15.191406 16.203125 -16.117188 15.421875 -16.828125 C 14.640625 -17.546875 13.550781 -17.90625 12.15625 -17.90625 Z M 11.25 -21.765625 C 15.914062 -21.796875 18.25 -24.269531 18.25 -29.1875 C 18.25 -31.769531 16.914062 -33.0625 14.25 -33.0625 C 13.5 -33.0625 12.914062 -33.035156 12.5 -32.984375 Z M 11.25 -21.765625 "/></g></g></g><g fill="#000000" fill-opacity="1"><g transform="translate(92.733583, 215.060091)"><g><path d="M 18 -37.453125 L 20.859375 -0.703125 C 20.859375 -0.328125 20.648438 -0.125 20.234375 -0.09375 L 15.125 0.09375 C 14.78125 0.09375 14.609375 -0.0546875 14.609375 -0.359375 L 14.25 -8.421875 L 8.703125 -8.203125 L 6.875 -0.6875 C 6.832031 -0.457031 6.769531 -0.300781 6.6875 -0.21875 C 6.601562 -0.132812 6.457031 -0.0859375 6.25 -0.078125 L 1.203125 0.09375 C 0.867188 0.09375 0.703125 -0.0546875 0.703125 -0.359375 L 11.421875 -37.28125 C 11.535156 -37.632812 11.753906 -37.820312 12.078125 -37.84375 L 17.4375 -38.03125 C 17.78125 -38.019531 17.96875 -37.828125 18 -37.453125 Z M 13.390625 -27.40625 L 9.984375 -13.390625 L 14.03125 -13.546875 Z M 13.390625 -27.40625 "/></g></g></g><g fill="#000000" fill-opacity="1"><g transform="translate(116.252583, 215.060091)"><g><path d="M 4.984375 -37.75 L 20.78125 -38.3125 C 21.15625 -38.289062 21.34375 -38.085938 21.34375 -37.703125 L 20.71875 -32.6875 C 20.6875 -32.445312 20.632812 -32.273438 20.5625 -32.171875 C 20.488281 -32.078125 20.335938 -32.023438 20.109375 -32.015625 L 15.375 -31.84375 L 11.8125 -0.6875 C 11.757812 -0.289062 11.546875 -0.0859375 11.171875 -0.078125 L 6.09375 0.09375 C 5.769531 0.09375 5.609375 -0.0546875 5.609375 -0.359375 L 9.203125 -31.640625 L 4.34375 -31.5 C 3.9375 -31.507812 3.734375 -31.695312 3.734375 -32.0625 L 4.34375 -37.140625 C 4.363281 -37.523438 4.578125 -37.726562 4.984375 -37.75 Z M 4.984375 -37.75 "/></g></g></g><g fill="#000000" fill-opacity="1"><g transform="translate(135.575247, 215.060091)"><g><path d="M 4.984375 -37.75 L 20.78125 -38.3125 C 21.15625 -38.289062 21.34375 -38.085938 21.34375 -37.703125 L 20.71875 -32.6875 C 20.6875 -32.445312 20.632812 -32.273438 20.5625 -32.171875 C 20.488281 -32.078125 20.335938 -32.023438 20.109375 -32.015625 L 15.375 -31.84375 L 11.8125 -0.6875 C 11.757812 -0.289062 11.546875 -0.0859375 11.171875 -0.078125 L 6.09375 0.09375 C 5.769531 0.09375 5.609375 -0.0546875 5.609375 -0.359375 L 9.203125 -31.640625 L 4.34375 -31.5 C 3.9375 -31.507812 3.734375 -31.695312 3.734375 -32.0625 L 4.34375 -37.140625 C 4.363281 -37.523438 4.578125 -37.726562 4.984375 -37.75 Z M 4.984375 -37.75 "/></g></g></g><g fill="#000000" fill-opacity="1"><g transform="translate(154.897911, 215.060091)"><g><path d="M 13 -37.421875 L 9.515625 -6.421875 L 18.859375 -6.78125 C 19.285156 -6.769531 19.5 -6.5625 19.5 -6.15625 L 18.859375 -1.09375 C 18.804688 -0.675781 18.59375 -0.457031 18.21875 -0.4375 L 3.203125 0.09375 C 2.859375 0.09375 2.6875 -0.0546875 2.6875 -0.359375 L 6.859375 -37.28125 C 6.890625 -37.476562 6.941406 -37.613281 7.015625 -37.6875 C 7.085938 -37.769531 7.238281 -37.820312 7.46875 -37.84375 L 12.375 -38.015625 C 12.789062 -37.992188 13 -37.796875 13 -37.421875 Z M 13 -37.421875 "/></g></g></g><g fill="#000000" fill-opacity="1"><g transform="translate(176.489542, 215.060091)"><g><path d="M 18.25 -16.6875 L 10.65625 -16.390625 L 9.515625 -6.390625 L 18.859375 -6.703125 C 19.285156 -6.691406 19.5 -6.484375 19.5 -6.078125 L 18.859375 -1.03125 C 18.828125 -0.6875 18.613281 -0.472656 18.21875 -0.390625 L 3.21875 0.09375 C 2.863281 0.09375 2.6875 -0.0546875 2.6875 -0.359375 L 6.90625 -37.28125 C 6.96875 -37.625 7.179688 -37.8125 7.546875 -37.84375 L 20.90625 -38.3125 C 21.3125 -38.257812 21.515625 -38.035156 21.515625 -37.640625 L 20.90625 -32.59375 C 20.863281 -32.1875 20.65625 -31.96875 20.28125 -31.9375 L 12.421875 -31.71875 L 11.375 -22.640625 L 18.890625 -22.90625 C 19.304688 -22.894531 19.515625 -22.6875 19.515625 -22.28125 L 18.890625 -17.296875 C 18.816406 -16.921875 18.601562 -16.71875 18.25 -16.6875 Z M 18.25 -16.6875 "/></g></g></g><g fill="#000000" fill-opacity="1"><g transform="translate(198.569119, 215.060091)"><g><path d="M 2.140625 0.359375 C 1.734375 0.359375 1.53125 0.164062 1.53125 -0.21875 L 2.140625 -5.3125 C 2.210938 -5.675781 2.425781 -5.875 2.78125 -5.90625 C 5.320312 -6.164062 7 -6.566406 7.8125 -7.109375 C 8.625 -7.648438 9.03125 -8.734375 9.03125 -10.359375 C 9.03125 -11.992188 8.613281 -14.113281 7.78125 -16.71875 C 6.945312 -19.332031 6.410156 -21.070312 6.171875 -21.9375 C 5.390625 -24.695312 5 -26.957031 5 -28.71875 C 5 -30.488281 5.28125 -32 5.84375 -33.25 C 6.414062 -34.507812 7.234375 -35.507812 8.296875 -36.25 C 10.347656 -37.6875 13.101562 -38.40625 16.5625 -38.40625 C 17 -38.40625 17.21875 -38.203125 17.21875 -37.796875 L 16.5625 -32.75 C 16.5 -32.34375 16.296875 -32.117188 15.953125 -32.078125 C 12.796875 -31.867188 11.21875 -30.9375 11.21875 -29.28125 C 11.21875 -27.75 11.890625 -24.742188 13.234375 -20.265625 C 14.578125 -15.785156 15.25 -12.578125 15.25 -10.640625 C 15.25 -3.304688 10.878906 0.359375 2.140625 0.359375 Z M 2.140625 0.359375 "/></g></g></g><g fill="#000000" fill-opacity="1"><g transform="translate(215.988793, 215.060091)"><g><path d="M 4.984375 -37.75 L 20.78125 -38.3125 C 21.15625 -38.289062 21.34375 -38.085938 21.34375 -37.703125 L 20.71875 -32.6875 C 20.6875 -32.445312 20.632812 -32.273438 20.5625 -32.171875 C 20.488281 -32.078125 20.335938 -32.023438 20.109375 -32.015625 L 15.375 -31.84375 L 11.8125 -0.6875 C 11.757812 -0.289062 11.546875 -0.0859375 11.171875 -0.078125 L 6.09375 0.09375 C 5.769531 0.09375 5.609375 -0.0546875 5.609375 -0.359375 L 9.203125 -31.640625 L 4.34375 -31.5 C 3.9375 -31.507812 3.734375 -31.695312 3.734375 -32.0625 L 4.34375 -37.140625 C 4.363281 -37.523438 4.578125 -37.726562 4.984375 -37.75 Z M 4.984375 -37.75 "/></g></g></g><g fill="#000000" fill-opacity="1"><g transform="translate(235.311457, 215.060091)"><g><path d="M 18.25 -16.6875 L 10.65625 -16.390625 L 9.515625 -6.390625 L 18.859375 -6.703125 C 19.285156 -6.691406 19.5 -6.484375 19.5 -6.078125 L 18.859375 -1.03125 C 18.828125 -0.6875 18.613281 -0.472656 18.21875 -0.390625 L 3.21875 0.09375 C 2.863281 0.09375 2.6875 -0.0546875 2.6875 -0.359375 L 6.90625 -37.28125 C 6.96875 -37.625 7.179688 -37.8125 7.546875 -37.84375 L 20.90625 -38.3125 C 21.3125 -38.257812 21.515625 -38.035156 21.515625 -37.640625 L 20.90625 -32.59375 C 20.863281 -32.1875 20.65625 -31.96875 20.28125 -31.9375 L 12.421875 -31.71875 L 11.375 -22.640625 L 18.890625 -22.90625 C 19.304688 -22.894531 19.515625 -22.6875 19.515625 -22.28125 L 18.890625 -17.296875 C 18.816406 -16.921875 18.601562 -16.71875 18.25 -16.6875 Z M 18.25 -16.6875 "/></g></g></g><g fill="#000000" fill-opacity="1"><g transform="translate(257.391033, 215.060091)"><g><path d="M 18.25 -16.6875 L 10.65625 -16.390625 L 9.515625 -6.390625 L 18.859375 -6.703125 C 19.285156 -6.691406 19.5 -6.484375 19.5 -6.078125 L 18.859375 -1.03125 C 18.828125 -0.6875 18.613281 -0.472656 18.21875 -0.390625 L 3.21875 0.09375 C 2.863281 0.09375 2.6875 -0.0546875 2.6875 -0.359375 L 6.90625 -37.28125 C 6.96875 -37.625 7.179688 -37.8125 7.546875 -37.84375 L 20.90625 -38.3125 C 21.3125 -38.257812 21.515625 -38.035156 21.515625 -37.640625 L 20.90625 -32.59375 C 20.863281 -32.1875 20.65625 -31.96875 20.28125 -31.9375 L 12.421875 -31.71875 L 11.375 -22.640625 L 18.890625 -22.90625 C 19.304688 -22.894531 19.515625 -22.6875 19.515625 -22.28125 L 18.890625 -17.296875 C 18.816406 -16.921875 18.601562 -16.71875 18.25 -16.6875 Z M 18.25 -16.6875 "/></g></g></g><g fill="#000000" fill-opacity="1"><g transform="translate(279.47061, 215.060091)"><g><path d="M 13 -37.421875 L 9.515625 -6.421875 L 18.859375 -6.78125 C 19.285156 -6.769531 19.5 -6.5625 19.5 -6.15625 L 18.859375 -1.09375 C 18.804688 -0.675781 18.59375 -0.457031 18.21875 -0.4375 L 3.203125 0.09375 C 2.859375 0.09375 2.6875 -0.0546875 2.6875 -0.359375 L 6.859375 -37.28125 C 6.890625 -37.476562 6.941406 -37.613281 7.015625 -37.6875 C 7.085938 -37.769531 7.238281 -37.820312 7.46875 -37.84375 L 12.375 -38.015625 C 12.789062 -37.992188 13 -37.796875 13 -37.421875 Z M 13 -37.421875 "/></g></g></g></svg>