<svg xmlns="http://www.w3.org/2000/svg" xmlns:xlink="http://www.w3.org/1999/xlink" width="500" zoomAndPan="magnify" viewBox="0 0 375 374.999991" height="500" preserveAspectRatio="xMidYMid meet" version="1.0"><defs><g/><clipPath id="ca25a79bfc"><path d="M 20.214844 36.761719 L 360.714844 36.761719 L 360.714844 162.011719 L 20.214844 162.011719 Z M 20.214844 36.761719 " clip-rule="nonzero"/></clipPath><clipPath id="a10e7bd440"><path d="M 14.089844 228.476562 L 360.589844 228.476562 L 360.589844 353.726562 L 14.089844 353.726562 Z M 14.089844 228.476562 " clip-rule="nonzero"/></clipPath><clipPath id="e86f01eaa6"><path d="M 157.566406 260.570312 L 223.566406 260.570312 L 223.566406 337.820312 L 157.566406 337.820312 Z M 157.566406 260.570312 " clip-rule="nonzero"/></clipPath></defs><g clip-path="url(#ca25a79bfc)"><path fill="#ffffff" d="M 348.191406 233.566406 C 354.867188 233.566406 360.332031 228.101562 360.332031 221.425781 L 360.332031 192.066406 C 360.332031 185.386719 354.867188 179.925781 348.191406 179.925781 L 335.582031 179.925781 C 328.90625 179.925781 321.839844 174.699219 319.871094 168.316406 L 309.113281 142.199219 C 305.957031 136.316406 307.238281 127.636719 311.957031 122.917969 L 320.878906 113.996094 C 325.597656 109.273438 325.601562 101.546875 320.878906 96.824219 L 300.121094 76.066406 C 295.398438 71.339844 287.671875 71.339844 282.949219 76.066406 L 274.027344 84.988281 C 269.300781 89.710938 260.621094 90.988281 254.742188 87.824219 L 228.625 77.074219 C 222.242188 75.109375 217.019531 68.039062 217.019531 61.359375 L 217.019531 48.753906 C 217.019531 42.074219 211.558594 36.613281 204.878906 36.613281 L 175.519531 36.613281 C 168.84375 36.613281 163.378906 42.074219 163.378906 48.753906 L 163.378906 61.359375 C 163.378906 68.039062 158.152344 75.109375 151.777344 77.074219 L 125.660156 87.824219 C 119.773438 90.988281 111.097656 89.707031 106.378906 84.984375 L 97.453125 76.0625 C 92.730469 71.335938 85.003906 71.335938 80.28125 76.0625 L 59.523438 96.820312 C 54.800781 101.542969 54.800781 109.269531 59.523438 113.992188 L 68.453125 122.914062 C 73.175781 127.636719 74.449219 136.316406 71.292969 142.199219 L 60.535156 168.316406 C 58.570312 174.699219 51.5 179.921875 44.824219 179.921875 L 32.21875 179.921875 C 25.542969 179.921875 20.078125 185.382812 20.078125 192.0625 L 20.078125 221.425781 C 20.078125 228.101562 25.542969 233.566406 32.21875 233.566406 L 44.824219 233.566406 C 51.5 233.566406 58.570312 238.785156 60.535156 245.167969 L 71.296875 271.289062 C 74.457031 277.171875 73.179688 285.851562 68.457031 290.570312 L 59.527344 299.5 C 54.804688 304.21875 54.804688 311.945312 59.527344 316.667969 L 80.28125 337.425781 C 85.003906 342.148438 92.730469 342.144531 97.453125 337.425781 L 106.382812 328.496094 C 111.105469 323.777344 119.78125 322.5 125.664062 325.660156 L 151.78125 336.417969 C 158.160156 338.382812 163.382812 345.449219 163.382812 352.128906 L 163.382812 364.738281 C 163.382812 371.414062 168.847656 376.878906 175.523438 376.878906 L 204.882812 376.878906 C 211.5625 376.878906 217.023438 371.414062 217.023438 364.738281 L 217.023438 352.125 C 217.023438 345.449219 222.246094 338.382812 228.628906 336.414062 L 254.746094 325.660156 C 260.625 322.5 269.308594 323.773438 274.027344 328.496094 L 282.957031 337.425781 C 287.675781 342.148438 295.40625 342.144531 300.125 337.425781 L 320.882812 316.667969 C 325.601562 311.949219 325.609375 304.21875 320.882812 299.496094 L 311.960938 290.570312 C 307.238281 285.847656 305.960938 277.167969 309.117188 271.285156 L 319.871094 245.167969 C 321.835938 238.789062 328.90625 233.566406 335.589844 233.566406 Z M 190.199219 276.738281 C 151.542969 276.738281 120.207031 245.398438 120.207031 206.746094 C 120.207031 168.085938 151.542969 136.75 190.199219 136.75 C 228.855469 136.75 260.195312 168.085938 260.195312 206.746094 C 260.195312 245.398438 228.855469 276.738281 190.199219 276.738281 Z M 190.199219 276.738281 " fill-opacity="1" fill-rule="nonzero"/></g><g clip-path="url(#a10e7bd440)"><path fill="#ffffff" d="M 27.011719 153.5625 C 20.222656 153.5625 14.664062 159.117188 14.664062 165.910156 L 14.664062 195.769531 C 14.664062 202.5625 20.222656 208.117188 27.011719 208.117188 L 39.835938 208.117188 C 46.628906 208.117188 53.816406 213.433594 55.816406 219.925781 L 66.757812 246.488281 C 69.96875 252.472656 68.667969 261.296875 63.867188 266.097656 L 54.789062 275.175781 C 49.992188 279.976562 49.988281 287.835938 54.789062 292.640625 L 75.902344 313.753906 C 80.707031 318.554688 88.566406 318.554688 93.367188 313.753906 L 102.445312 304.675781 C 107.25 299.871094 116.078125 298.574219 122.058594 301.789062 L 148.621094 312.726562 C 155.113281 314.722656 160.421875 321.914062 160.421875 328.707031 L 160.421875 341.527344 C 160.421875 348.320312 165.980469 353.878906 172.773438 353.878906 L 202.632812 353.878906 C 209.425781 353.878906 214.980469 348.320312 214.980469 341.527344 L 214.980469 328.707031 C 214.980469 321.914062 220.296875 314.722656 226.78125 312.726562 L 253.347656 301.789062 C 259.332031 298.574219 268.15625 299.875 272.957031 304.679688 L 282.03125 313.757812 C 286.835938 318.558594 294.695312 318.558594 299.5 313.757812 L 320.609375 292.644531 C 325.414062 287.839844 325.414062 279.980469 320.609375 275.179688 L 311.53125 266.101562 C 306.726562 261.296875 305.429688 252.472656 308.640625 246.488281 L 319.582031 219.925781 C 321.578125 213.433594 328.769531 208.121094 335.5625 208.121094 L 348.378906 208.121094 C 355.171875 208.121094 360.730469 202.566406 360.730469 195.773438 L 360.730469 165.910156 C 360.730469 159.117188 355.171875 153.5625 348.378906 153.5625 L 335.5625 153.5625 C 328.769531 153.5625 321.578125 148.25 319.582031 141.757812 L 308.636719 115.191406 C 305.421875 109.210938 306.722656 100.382812 311.527344 95.582031 L 320.605469 86.5 C 325.410156 81.703125 325.410156 73.84375 320.605469 69.039062 L 299.5 47.925781 C 294.695312 43.125 286.835938 43.128906 282.03125 47.925781 L 272.953125 57.007812 C 268.148438 61.808594 259.324219 63.109375 253.339844 59.894531 L 226.777344 48.953125 C 220.289062 46.957031 214.976562 39.769531 214.976562 32.972656 L 214.976562 20.152344 C 214.976562 13.359375 209.421875 7.800781 202.628906 7.800781 L 172.769531 7.800781 C 165.976562 7.800781 160.417969 13.359375 160.417969 20.152344 L 160.417969 32.976562 C 160.417969 39.769531 155.109375 46.957031 148.617188 48.957031 L 122.054688 59.894531 C 116.074219 63.109375 107.246094 61.8125 102.445312 57.007812 L 93.359375 47.925781 C 88.5625 43.125 80.699219 43.128906 75.898438 47.925781 L 54.785156 69.039062 C 49.988281 73.839844 49.984375 81.703125 54.785156 86.507812 L 63.863281 95.582031 C 68.667969 100.386719 69.964844 109.214844 66.753906 115.195312 L 55.816406 141.757812 C 53.820312 148.25 46.628906 153.5625 39.832031 153.5625 Z M 187.703125 109.652344 C 227.019531 109.652344 258.890625 141.523438 258.890625 180.839844 C 258.890625 220.160156 227.019531 252.03125 187.703125 252.03125 C 148.386719 252.03125 116.511719 220.160156 116.511719 180.839844 C 116.511719 141.523438 148.386719 109.652344 187.703125 109.652344 Z M 187.703125 109.652344 " fill-opacity="1" fill-rule="nonzero"/></g><g clip-path="url(#e86f01eaa6)"><path fill="#000000" d="M 218.261719 286.214844 C 218.042969 285.753906 217.53125 285.503906 217.03125 285.617188 L 211.941406 286.746094 C 212.054688 285.917969 211.980469 285.066406 211.730469 284.261719 L 219.199219 283.480469 L 220.941406 291.871094 Z M 188.011719 260.566406 L 186.929688 260.566406 C 185.023438 260.691406 183.15625 261.480469 181.703125 262.933594 C 179.867188 264.769531 179.09375 267.265625 179.375 269.660156 L 166.292969 280.453125 C 164.011719 280.554688 161.882812 281.488281 160.253906 283.113281 C 158.53125 284.835938 157.582031 287.125 157.582031 289.5625 C 157.582031 291.996094 158.53125 294.289062 160.253906 296.007812 C 161.550781 297.308594 163.171875 298.164062 164.9375 298.507812 L 176.042969 322.820312 C 176.042969 322.898438 176.039062 322.976562 176.039062 323.054688 L 176.039062 330.476562 L 172.972656 330.476562 C 171.542969 330.476562 170.382812 331.636719 170.382812 333.066406 L 170.382812 335.222656 C 170.382812 336.648438 171.542969 337.8125 172.972656 337.8125 L 197.34375 337.8125 C 198.773438 337.8125 199.9375 336.648438 199.9375 335.222656 L 199.9375 333.066406 C 199.9375 331.636719 198.773438 330.476562 197.34375 330.476562 L 194.28125 330.476562 L 194.28125 323.054688 C 194.28125 320.726562 193.398438 318.597656 191.960938 316.988281 L 175.050781 293.265625 C 175.558594 292.113281 175.832031 290.859375 175.832031 289.5625 C 175.832031 289.492188 175.832031 289.425781 175.832031 289.359375 L 186.238281 276.761719 C 186.644531 276.824219 187.0625 276.855469 187.476562 276.855469 C 188.191406 276.855469 188.90625 276.761719 189.597656 276.574219 L 200.628906 285.671875 C 200.621094 285.777344 200.613281 285.882812 200.613281 285.984375 C 200.613281 287.503906 201.210938 288.933594 202.289062 290.007812 C 202.351562 290.078125 202.425781 290.148438 202.5 290.214844 L 201.519531 299.625 C 201.460938 300.183594 201.839844 300.695312 202.382812 300.8125 L 213.652344 303.148438 C 213.726562 303.164062 213.800781 303.171875 213.878906 303.171875 C 214.167969 303.171875 214.445312 303.058594 214.652344 302.851562 L 215.929688 301.574219 C 216.183594 301.320312 216.296875 300.960938 216.238281 300.613281 C 216.179688 300.261719 215.949219 299.960938 215.625 299.808594 L 208.269531 296.324219 L 209.519531 290.675781 C 209.808594 290.480469 210.078125 290.257812 210.328125 290.007812 C 210.582031 289.753906 210.808594 289.484375 211 289.199219 L 216.65625 287.941406 L 220.140625 295.296875 C 220.296875 295.617188 220.597656 295.84375 220.941406 295.90625 C 221.007812 295.914062 221.070312 295.921875 221.132812 295.921875 C 221.421875 295.921875 221.703125 295.808594 221.90625 295.601562 L 223.183594 294.324219 C 223.449219 294.0625 223.558594 293.6875 223.484375 293.328125 L 221.140625 282.066406 C 221.03125 281.515625 220.515625 281.140625 219.957031 281.199219 L 210.535156 282.183594 C 210.46875 282.109375 210.402344 282.035156 210.328125 281.964844 C 209.144531 280.777344 207.554688 280.226562 206 280.3125 L 195.570312 267.6875 C 195.347656 265.949219 194.574219 264.265625 193.242188 262.933594 C 191.789062 261.480469 189.917969 260.691406 188.011719 260.566406 Z M 208.78125 288.457031 C 208.121094 289.117188 207.242188 289.480469 206.308594 289.480469 C 205.371094 289.480469 204.496094 289.117188 203.832031 288.457031 C 203.171875 287.796875 202.808594 286.917969 202.808594 285.984375 C 202.808594 285.050781 203.171875 284.175781 203.832031 283.515625 C 204.519531 282.832031 205.410156 282.492188 206.308594 282.492188 C 207.207031 282.492188 208.097656 282.832031 208.78125 283.515625 C 210.144531 284.875 210.144531 287.09375 208.78125 288.457031 Z M 206.535156 297.929688 C 206.074219 297.710938 205.828125 297.203125 205.941406 296.703125 L 207.066406 291.621094 C 206.816406 291.652344 206.566406 291.671875 206.308594 291.671875 C 205.710938 291.671875 205.128906 291.578125 204.585938 291.40625 L 203.796875 298.867188 L 212.199219 300.609375 Z M 191.84375 275.589844 C 192.34375 275.273438 192.816406 274.902344 193.242188 274.46875 C 194.289062 273.429688 194.980469 272.179688 195.339844 270.855469 L 203.679688 280.945312 C 203.179688 281.203125 202.707031 281.546875 202.285156 281.964844 C 201.867188 282.378906 201.527344 282.851562 201.261719 283.355469 Z M 183.25 272.921875 C 180.921875 270.59375 180.921875 266.808594 183.25 264.480469 C 184.410156 263.320312 185.945312 262.738281 187.476562 262.738281 C 189 262.738281 190.53125 263.320312 191.695312 264.480469 C 194.023438 266.808594 194.023438 270.59375 191.695312 272.921875 C 189.367188 275.25 185.582031 275.246094 183.25 272.921875 Z M 175.316406 286.535156 C 174.875 285.261719 174.144531 284.097656 173.15625 283.113281 C 172.066406 282.019531 170.742188 281.238281 169.292969 280.816406 L 180 271.984375 C 180.398438 272.886719 180.964844 273.730469 181.703125 274.46875 C 182.378906 275.148438 183.144531 275.679688 183.96875 276.066406 Z M 187.277344 314.191406 C 186.59375 314.027344 185.886719 313.941406 185.164062 313.941406 C 181.464844 313.941406 178.285156 316.148438 176.847656 319.308594 L 167.414062 298.652344 C 169.585938 298.488281 171.605469 297.566406 173.15625 296.007812 C 173.386719 295.78125 173.605469 295.542969 173.804688 295.292969 Z M 192.085938 330.476562 L 178.230469 330.476562 L 178.230469 323.054688 C 178.230469 319.238281 181.339844 316.128906 185.164062 316.128906 C 188.976562 316.128906 192.085938 319.238281 192.085938 323.054688 Z M 197.742188 333.066406 L 197.742188 335.222656 C 197.742188 335.441406 197.566406 335.621094 197.34375 335.621094 L 172.972656 335.621094 C 172.753906 335.621094 172.570312 335.4375 172.570312 335.222656 L 172.570312 333.066406 C 172.570312 332.847656 172.753906 332.667969 172.972656 332.667969 L 197.34375 332.667969 C 197.566406 332.667969 197.742188 332.84375 197.742188 333.066406 Z M 161.800781 284.664062 C 163.113281 283.351562 164.855469 282.632812 166.707031 282.632812 C 168.5625 282.632812 170.300781 283.355469 171.609375 284.664062 C 174.3125 287.363281 174.3125 291.761719 171.609375 294.460938 C 170.300781 295.769531 168.5625 296.492188 166.707031 296.492188 C 164.855469 296.492188 163.113281 295.769531 161.800781 294.460938 C 159.097656 291.761719 159.097656 287.363281 161.800781 284.664062 Z M 164.0625 289.5625 C 164.0625 288.855469 164.339844 288.191406 164.835938 287.695312 C 165.335938 287.195312 166 286.921875 166.707031 286.921875 C 167.414062 286.921875 168.074219 287.195312 168.578125 287.695312 C 169.078125 288.191406 169.351562 288.855469 169.351562 289.5625 C 169.351562 290.265625 169.078125 290.929688 168.578125 291.429688 C 168.074219 291.929688 167.414062 292.203125 166.707031 292.203125 C 166 292.203125 165.335938 291.929688 164.835938 291.429688 C 164.339844 290.929688 164.0625 290.265625 164.0625 289.5625 Z M 170.125 292.976562 C 169.179688 293.921875 167.945312 294.390625 166.707031 294.390625 C 165.46875 294.390625 164.230469 293.921875 163.289062 292.976562 C 161.402344 291.09375 161.402344 288.027344 163.289062 286.144531 C 165.175781 284.261719 168.238281 284.261719 170.125 286.144531 C 172.007812 288.027344 172.007812 291.09375 170.125 292.976562 Z M 189.023438 270.253906 C 188.609375 270.667969 188.058594 270.894531 187.476562 270.894531 C 186.886719 270.894531 186.332031 270.667969 185.921875 270.253906 C 185.507812 269.839844 185.28125 269.289062 185.28125 268.703125 C 185.28125 268.117188 185.507812 267.566406 185.921875 267.148438 C 186.332031 266.734375 186.886719 266.507812 187.476562 266.507812 C 188.058594 266.507812 188.609375 266.734375 189.023438 267.148438 C 189.441406 267.566406 189.671875 268.117188 189.671875 268.703125 C 189.671875 269.289062 189.441406 269.839844 189.023438 270.253906 Z M 190.578125 265.601562 C 191.402344 266.429688 191.859375 267.53125 191.859375 268.703125 C 191.859375 269.871094 191.402344 270.972656 190.578125 271.800781 C 189.746094 272.628906 188.648438 273.085938 187.476562 273.085938 C 186.304688 273.085938 185.199219 272.628906 184.375 271.800781 C 183.542969 270.972656 183.085938 269.871094 183.085938 268.703125 C 183.085938 267.53125 183.542969 266.429688 184.375 265.601562 C 185.199219 264.773438 186.304688 264.316406 187.476562 264.316406 C 188.648438 264.316406 189.746094 264.773438 190.578125 265.601562 Z M 185.164062 325.851562 C 183.617188 325.851562 182.363281 324.597656 182.363281 323.054688 C 182.363281 321.511719 183.617188 320.257812 185.164062 320.257812 C 186.703125 320.257812 187.960938 321.511719 187.960938 323.054688 C 187.960938 324.597656 186.703125 325.851562 185.164062 325.851562 Z M 185.164062 318.070312 C 187.910156 318.070312 190.148438 320.304688 190.148438 323.054688 C 190.148438 325.804688 187.910156 328.042969 185.164062 328.042969 C 182.410156 328.042969 180.167969 325.804688 180.167969 323.054688 C 180.167969 320.304688 182.410156 318.070312 185.164062 318.070312 Z M 185.164062 318.070312 " fill-opacity="1" fill-rule="evenodd"/></g><g fill="#ffffff" fill-opacity="1"><g transform="translate(68.067892, 215.060091)"><g><path d="M 24.03125 -30.359375 C 24.03125 -25.503906 22.160156 -22.160156 18.421875 -20.328125 C 19.691406 -19.785156 20.679688 -18.957031 21.390625 -17.84375 C 22.109375 -16.726562 22.46875 -15.300781 22.46875 -13.5625 C 22.46875 -11.820312 22.210938 -10.171875 21.703125 -8.609375 C 21.191406 -7.046875 20.398438 -5.632812 19.328125 -4.375 C 17.046875 -1.664062 13.425781 -0.234375 8.46875 -0.078125 L 3.21875 0.09375 C 2.863281 0.0625 2.6875 -0.0859375 2.6875 -0.359375 L 6.875 -37.09375 C 6.90625 -37.382812 6.976562 -37.582031 7.09375 -37.6875 C 7.207031 -37.789062 8.222656 -37.910156 10.140625 -38.046875 C 12.066406 -38.179688 13.898438 -38.25 15.640625 -38.25 C 18.566406 -38.25 20.695312 -37.546875 22.03125 -36.140625 C 23.363281 -34.734375 24.03125 -32.804688 24.03125 -30.359375 Z M 12.15625 -17.90625 C 11.488281 -17.90625 11.046875 -17.898438 10.828125 -17.890625 L 9.515625 -6 C 11.835938 -6 13.597656 -6.738281 14.796875 -8.21875 C 15.992188 -9.695312 16.59375 -11.640625 16.59375 -14.046875 C 16.59375 -15.191406 16.203125 -16.117188 15.421875 -16.828125 C 14.640625 -17.546875 13.550781 -17.90625 12.15625 -17.90625 Z M 11.25 -21.765625 C 15.914062 -21.796875 18.25 -24.269531 18.25 -29.1875 C 18.25 -31.769531 16.914062 -33.0625 14.25 -33.0625 C 13.5 -33.0625 12.914062 -33.035156 12.5 -32.984375 Z M 11.25 -21.765625 "/></g></g></g><g fill="#ffffff" fill-opacity="1"><g transform="translate(92.733583, 215.060091)"><g><path d="M 18 -37.453125 L 20.859375 -0.703125 C 20.859375 -0.328125 20.648438 -0.125 20.234375 -0.09375 L 15.125 0.09375 C 14.78125 0.09375 14.609375 -0.0546875 14.609375 -0.359375 L 14.25 -8.421875 L 8.703125 -8.203125 L 6.875 -0.6875 C 6.832031 -0.457031 6.769531 -0.300781 6.6875 -0.21875 C 6.601562 -0.132812 6.457031 -0.0859375 6.25 -0.078125 L 1.203125 0.09375 C 0.867188 0.09375 0.703125 -0.0546875 0.703125 -0.359375 L 11.421875 -37.28125 C 11.535156 -37.632812 11.753906 -37.820312 12.078125 -37.84375 L 17.4375 -38.03125 C 17.78125 -38.019531 17.96875 -37.828125 18 -37.453125 Z M 13.390625 -27.40625 L 9.984375 -13.390625 L 14.03125 -13.546875 Z M 13.390625 -27.40625 "/></g></g></g><g fill="#ffffff" fill-opacity="1"><g transform="translate(116.252583, 215.060091)"><g><path d="M 4.984375 -37.75 L 20.78125 -38.3125 C 21.15625 -38.289062 21.34375 -38.085938 21.34375 -37.703125 L 20.71875 -32.6875 C 20.6875 -32.445312 20.632812 -32.273438 20.5625 -32.171875 C 20.488281 -32.078125 20.335938 -32.023438 20.109375 -32.015625 L 15.375 -31.84375 L 11.8125 -0.6875 C 11.757812 -0.289062 11.546875 -0.0859375 11.171875 -0.078125 L 6.09375 0.09375 C 5.769531 0.09375 5.609375 -0.0546875 5.609375 -0.359375 L 9.203125 -31.640625 L 4.34375 -31.5 C 3.9375 -31.507812 3.734375 -31.695312 3.734375 -32.0625 L 4.34375 -37.140625 C 4.363281 -37.523438 4.578125 -37.726562 4.984375 -37.75 Z M 4.984375 -37.75 "/></g></g></g><g fill="#ffffff" fill-opacity="1"><g transform="translate(135.575247, 215.060091)"><g><path d="M 4.984375 -37.75 L 20.78125 -38.3125 C 21.15625 -38.289062 21.34375 -38.085938 21.34375 -37.703125 L 20.71875 -32.6875 C 20.6875 -32.445312 20.632812 -32.273438 20.5625 -32.171875 C 20.488281 -32.078125 20.335938 -32.023438 20.109375 -32.015625 L 15.375 -31.84375 L 11.8125 -0.6875 C 11.757812 -0.289062 11.546875 -0.0859375 11.171875 -0.078125 L 6.09375 0.09375 C 5.769531 0.09375 5.609375 -0.0546875 5.609375 -0.359375 L 9.203125 -31.640625 L 4.34375 -31.5 C 3.9375 -31.507812 3.734375 -31.695312 3.734375 -32.0625 L 4.34375 -37.140625 C 4.363281 -37.523438 4.578125 -37.726562 4.984375 -37.75 Z M 4.984375 -37.75 "/></g></g></g><g fill="#ffffff" fill-opacity="1"><g transform="translate(154.897911, 215.060091)"><g><path d="M 13 -37.421875 L 9.515625 -6.421875 L 18.859375 -6.78125 C 19.285156 -6.769531 19.5 -6.5625 19.5 -6.15625 L 18.859375 -1.09375 C 18.804688 -0.675781 18.59375 -0.457031 18.21875 -0.4375 L 3.203125 0.09375 C 2.859375 0.09375 2.6875 -0.0546875 2.6875 -0.359375 L 6.859375 -37.28125 C 6.890625 -37.476562 6.941406 -37.613281 7.015625 -37.6875 C 7.085938 -37.769531 7.238281 -37.820312 7.46875 -37.84375 L 12.375 -38.015625 C 12.789062 -37.992188 13 -37.796875 13 -37.421875 Z M 13 -37.421875 "/></g></g></g><g fill="#ffffff" fill-opacity="1"><g transform="translate(176.489542, 215.060091)"><g><path d="M 18.25 -16.6875 L 10.65625 -16.390625 L 9.515625 -6.390625 L 18.859375 -6.703125 C 19.285156 -6.691406 19.5 -6.484375 19.5 -6.078125 L 18.859375 -1.03125 C 18.828125 -0.6875 18.613281 -0.472656 18.21875 -0.390625 L 3.21875 0.09375 C 2.863281 0.09375 2.6875 -0.0546875 2.6875 -0.359375 L 6.90625 -37.28125 C 6.96875 -37.625 7.179688 -37.8125 7.546875 -37.84375 L 20.90625 -38.3125 C 21.3125 -38.257812 21.515625 -38.035156 21.515625 -37.640625 L 20.90625 -32.59375 C 20.863281 -32.1875 20.65625 -31.96875 20.28125 -31.9375 L 12.421875 -31.71875 L 11.375 -22.640625 L 18.890625 -22.90625 C 19.304688 -22.894531 19.515625 -22.6875 19.515625 -22.28125 L 18.890625 -17.296875 C 18.816406 -16.921875 18.601562 -16.71875 18.25 -16.6875 Z M 18.25 -16.6875 "/></g></g></g><g fill="#ffffff" fill-opacity="1"><g transform="translate(198.569119, 215.060091)"><g><path d="M 2.140625 0.359375 C 1.734375 0.359375 1.53125 0.164062 1.53125 -0.21875 L 2.140625 -5.3125 C 2.210938 -5.675781 2.425781 -5.875 2.78125 -5.90625 C 5.320312 -6.164062 7 -6.566406 7.8125 -7.109375 C 8.625 -7.648438 9.03125 -8.734375 9.03125 -10.359375 C 9.03125 -11.992188 8.613281 -14.113281 7.78125 -16.71875 C 6.945312 -19.332031 6.410156 -21.070312 6.171875 -21.9375 C 5.390625 -24.695312 5 -26.957031 5 -28.71875 C 5 -30.488281 5.28125 -32 5.84375 -33.25 C 6.414062 -34.507812 7.234375 -35.507812 8.296875 -36.25 C 10.347656 -37.6875 13.101562 -38.40625 16.5625 -38.40625 C 17 -38.40625 17.21875 -38.203125 17.21875 -37.796875 L 16.5625 -32.75 C 16.5 -32.34375 16.296875 -32.117188 15.953125 -32.078125 C 12.796875 -31.867188 11.21875 -30.9375 11.21875 -29.28125 C 11.21875 -27.75 11.890625 -24.742188 13.234375 -20.265625 C 14.578125 -15.785156 15.25 -12.578125 15.25 -10.640625 C 15.25 -3.304688 10.878906 0.359375 2.140625 0.359375 Z M 2.140625 0.359375 "/></g></g></g><g fill="#ffffff" fill-opacity="1"><g transform="translate(215.988793, 215.060091)"><g><path d="M 4.984375 -37.75 L 20.78125 -38.3125 C 21.15625 -38.289062 21.34375 -38.085938 21.34375 -37.703125 L 20.71875 -32.6875 C 20.6875 -32.445312 20.632812 -32.273438 20.5625 -32.171875 C 20.488281 -32.078125 20.335938 -32.023438 20.109375 -32.015625 L 15.375 -31.84375 L 11.8125 -0.6875 C 11.757812 -0.289062 11.546875 -0.0859375 11.171875 -0.078125 L 6.09375 0.09375 C 5.769531 0.09375 5.609375 -0.0546875 5.609375 -0.359375 L 9.203125 -31.640625 L 4.34375 -31.5 C 3.9375 -31.507812 3.734375 -31.695312 3.734375 -32.0625 L 4.34375 -37.140625 C 4.363281 -37.523438 4.578125 -37.726562 4.984375 -37.75 Z M 4.984375 -37.75 "/></g></g></g><g fill="#ffffff" fill-opacity="1"><g transform="translate(235.311457, 215.060091)"><g><path d="M 18.25 -16.6875 L 10.65625 -16.390625 L 9.515625 -6.390625 L 18.859375 -6.703125 C 19.285156 -6.691406 19.5 -6.484375 19.5 -6.078125 L 18.859375 -1.03125 C 18.828125 -0.6875 18.613281 -0.472656 18.21875 -0.390625 L 3.21875 0.09375 C 2.863281 0.09375 2.6875 -0.0546875 2.6875 -0.359375 L 6.90625 -37.28125 C 6.96875 -37.625 7.179688 -37.8125 7.546875 -37.84375 L 20.90625 -38.3125 C 21.3125 -38.257812 21.515625 -38.035156 21.515625 -37.640625 L 20.90625 -32.59375 C 20.863281 -32.1875 20.65625 -31.96875 20.28125 -31.9375 L 12.421875 -31.71875 L 11.375 -22.640625 L 18.890625 -22.90625 C 19.304688 -22.894531 19.515625 -22.6875 19.515625 -22.28125 L 18.890625 -17.296875 C 18.816406 -16.921875 18.601562 -16.71875 18.25 -16.6875 Z M 18.25 -16.6875 "/></g></g></g><g fill="#ffffff" fill-opacity="1"><g transform="translate(257.391033, 215.060091)"><g><path d="M 18.25 -16.6875 L 10.65625 -16.390625 L 9.515625 -6.390625 L 18.859375 -6.703125 C 19.285156 -6.691406 19.5 -6.484375 19.5 -6.078125 L 18.859375 -1.03125 C 18.828125 -0.6875 18.613281 -0.472656 18.21875 -0.390625 L 3.21875 0.09375 C 2.863281 0.09375 2.6875 -0.0546875 2.6875 -0.359375 L 6.90625 -37.28125 C 6.96875 -37.625 7.179688 -37.8125 7.546875 -37.84375 L 20.90625 -38.3125 C 21.3125 -38.257812 21.515625 -38.035156 21.515625 -37.640625 L 20.90625 -32.59375 C 20.863281 -32.1875 20.65625 -31.96875 20.28125 -31.9375 L 12.421875 -31.71875 L 11.375 -22.640625 L 18.890625 -22.90625 C 19.304688 -22.894531 19.515625 -22.6875 19.515625 -22.28125 L 18.890625 -17.296875 C 18.816406 -16.921875 18.601562 -16.71875 18.25 -16.6875 Z M 18.25 -16.6875 "/></g></g></g><g fill="#ffffff" fill-opacity="1"><g transform="translate(279.47061, 215.060091)"><g><path d="M 13 -37.421875 L 9.515625 -6.421875 L 18.859375 -6.78125 C 19.285156 -6.769531 19.5 -6.5625 19.5 -6.15625 L 18.859375 -1.09375 C 18.804688 -0.675781 18.59375 -0.457031 18.21875 -0.4375 L 3.203125 0.09375 C 2.859375 0.09375 2.6875 -0.0546875 2.6875 -0.359375 L 6.859375 -37.28125 C 6.890625 -37.476562 6.941406 -37.613281 7.015625 -37.6875 C 7.085938 -37.769531 7.238281 -37.820312 7.46875 -37.84375 L 12.375 -38.015625 C 12.789062 -37.992188 13 -37.796875 13 -37.421875 Z M 13 -37.421875 "/></g></g></g></svg>